<svg width="37" height="37" viewBox="0 0 37 37" fill="none" xmlns="http://www.w3.org/2000/svg">
<circle cx="18.5" cy="13.8749" r="6.16667" fill="black"/>
<circle cx="26.2084" cy="13.875" r="4.625" fill="black"/>
<circle cx="10.7916" cy="13.875" r="4.625" fill="black"/>
<path fill-rule="evenodd" clip-rule="evenodd" d="M27.0847 27.7501H31.2701C31.8617 27.7501 32.3159 27.2426 32.1953 26.6634C31.753 24.5391 30.3299 20.0417 26.2084 20.0417C24.8424 20.0417 23.7727 20.5358 22.937 21.2738C25.2614 22.7818 26.4633 25.4225 27.0847 27.7501Z" fill="black"/>
<path fill-rule="evenodd" clip-rule="evenodd" d="M14.063 21.2737C13.2273 20.5358 12.1577 20.0417 10.7916 20.0417C6.67008 20.0417 5.24697 24.5391 4.80467 26.6634C4.68407 27.2426 5.13829 27.7501 5.72991 27.7501H9.91525C10.5367 25.4225 11.7385 22.7818 14.063 21.2737Z" fill="black"/>
<path d="M18.5 21.5833C24.6395 21.5833 25.889 27.4513 26.1433 29.8398C26.2018 30.389 25.7606 30.8333 25.2083 30.8333H11.7916C11.2393 30.8333 10.7981 30.389 10.8566 29.8398C11.1109 27.4513 12.3604 21.5833 18.5 21.5833Z" fill="black"/>
</svg>
