<svg width="30" height="30" viewBox="0 0 30 30" fill="none" xmlns="http://www.w3.org/2000/svg">
<path fill-rule="evenodd" clip-rule="evenodd" d="M14.9999 1.73462C14.3425 1.73462 13.7706 2.1562 12.6266 2.99936L9.79198 5.08874C9.61178 5.22157 9.52168 5.28798 9.42494 5.34383C9.3282 5.39968 9.22564 5.44451 9.0205 5.53416L5.79371 6.94435C4.49156 7.51343 3.84048 7.79797 3.51176 8.36733C3.18305 8.93668 3.26217 9.6428 3.42041 11.055L3.81254 14.5546C3.83747 14.7771 3.84993 14.8883 3.84993 15C3.84993 15.1117 3.83747 15.223 3.81254 15.4454L3.42041 18.945C3.26217 20.3573 3.18305 21.0634 3.51176 21.6327C3.84048 22.2021 4.49156 22.4866 5.79371 23.0557L9.0205 24.4659C9.22564 24.5556 9.3282 24.6004 9.42494 24.6562C9.52167 24.7121 9.61177 24.7785 9.79195 24.9113L9.79198 24.9113L12.6266 27.0007C13.7706 27.8439 14.3425 28.2654 14.9999 28.2654C15.6574 28.2654 16.2293 27.8439 17.3732 27.0007L20.2079 24.9113L20.2079 24.9113C20.3881 24.7785 20.4782 24.7121 20.575 24.6562C20.6717 24.6004 20.7743 24.5556 20.9794 24.4659L24.2062 23.0557C25.5083 22.4866 26.1594 22.2021 26.4881 21.6327C26.8169 21.0634 26.7377 20.3573 26.5795 18.945L26.1874 15.4454C26.1624 15.223 26.15 15.1117 26.15 15C26.15 14.8883 26.1624 14.7771 26.1874 14.5546L26.5795 11.055C26.7377 9.6428 26.8169 8.93668 26.4881 8.36733C26.1594 7.79797 25.5083 7.51343 24.2062 6.94436L20.9794 5.53416C20.7743 5.44451 20.6717 5.39968 20.575 5.34383C20.4782 5.28799 20.3881 5.22158 20.208 5.08878L20.2079 5.08874L17.3733 2.99936C16.2293 2.1562 15.6574 1.73462 14.9999 1.73462ZM14.9999 20C17.7614 20 19.9999 17.7615 19.9999 15C19.9999 12.2386 17.7614 10 14.9999 10C12.2385 10 9.99995 12.2386 9.99995 15C9.99995 17.7615 12.2385 20 14.9999 20Z" fill="black"/>
</svg>
