<svg width="18" height="14" viewBox="0 0 18 14" fill="none" xmlns="http://www.w3.org/2000/svg">
<path fill-rule="evenodd" clip-rule="evenodd" d="M1.33105 0.985787C1.95546 0.517479 2.7837 0.25 3.66667 0.25H14.3333C15.2163 0.25 16.0445 0.517479 16.669 0.985787C17.2936 1.45427 17.75 2.15872 17.75 3V11C17.75 11.8413 17.2936 12.5457 16.669 13.0142C16.0445 13.4825 15.2163 13.75 14.3333 13.75H3.66667C2.7837 13.75 1.95546 13.4825 1.33105 13.0142C0.706408 12.5457 0.25 11.8413 0.25 11V3C0.25 2.15872 0.706408 1.45427 1.33105 0.985787ZM7.75 12.25H14.3333C14.9231 12.25 15.4282 12.0698 15.769 11.8142C16.1095 11.5588 16.25 11.2633 16.25 11V3C16.25 2.73671 16.1095 2.44116 15.769 2.18579C15.4282 1.93024 14.9231 1.75 14.3333 1.75H7.75V12.25ZM6.25 1.75V12.25H3.66667C3.07687 12.25 2.57178 12.0698 2.23105 11.8142C1.89055 11.5588 1.75 11.2633 1.75 11V3C1.75 2.73671 1.89055 2.44116 2.23105 2.18579C2.57178 1.93024 3.07687 1.75 3.66667 1.75H6.25Z" fill="black"/>
</svg>
