<svg width="16" height="16" viewBox="0 0 16 16" fill="none" xmlns="http://www.w3.org/2000/svg">
<g clip-path="url(#clip0_3_2549)">
<path fill-rule="evenodd" clip-rule="evenodd" d="M8 16C12.4183 16 16 12.4183 16 8.00003C16 3.58175 12.4183 3.05176e-05 8 3.05176e-05C3.58172 3.05176e-05 0 3.58175 0 8.00003C0 12.4183 3.58172 16 8 16ZM5.70711 4.29292C5.31658 3.9024 4.68342 3.9024 4.29289 4.29292C3.90237 4.68345 3.90237 5.31661 4.29289 5.70714L6.58579 8.00003L4.29289 10.2929C3.90237 10.6834 3.90237 11.3166 4.29289 11.7071C4.68342 12.0977 5.31658 12.0977 5.70711 11.7071L8 9.41424L10.2929 11.7071C10.6834 12.0977 11.3166 12.0977 11.7071 11.7071C12.0976 11.3166 12.0976 10.6834 11.7071 10.2929L9.41421 8.00003L11.7071 5.70714C12.0976 5.31661 12.0976 4.68345 11.7071 4.29292C11.3166 3.9024 10.6834 3.9024 10.2929 4.29292L8 6.58582L5.70711 4.29292Z" fill="black"/>
</g>
<defs>
<clipPath id="clip0_3_2549">
<rect width="16" height="16" fill="white"/>
</clipPath>
</defs>
</svg>
