<svg width="23" height="24" viewBox="0 0 23 24" fill="none" xmlns="http://www.w3.org/2000/svg">
<g clip-path="url(#clip0_76_294)">
<path d="M16.8 6C16.8 4.4087 16.21 2.88258 15.1598 1.75736C14.1096 0.632141 12.6852 0 11.2 0C9.71479 0 8.29041 0.632141 7.2402 1.75736C6.19 2.88258 5.6 4.4087 5.6 6H0V21C0 21.7956 0.294999 22.5587 0.820101 23.1213C1.3452 23.6839 2.05739 24 2.8 24H19.6C20.3426 24 21.0548 23.6839 21.5799 23.1213C22.105 22.5587 22.4 21.7956 22.4 21V6H16.8ZM11.2 2C12.1901 2 13.1397 2.42143 13.8399 3.17157C14.54 3.92172 14.9333 4.93913 14.9333 6H7.46667C7.46667 4.93913 7.86 3.92172 8.56013 3.17157C9.26027 2.42143 10.2099 2 11.2 2V2Z" fill="#4361EE"/>
</g>
<defs>
<clipPath id="clip0_76_294">
<rect width="22.4" height="24" fill="white"/>
</clipPath>
</defs>
</svg>
