<svg width="41" height="40" viewBox="0 0 41 40" fill="none" xmlns="http://www.w3.org/2000/svg">
<g clip-path="url(#clip0_76_303)">
<path d="M20.1349 0C16.1656 0 12.2854 1.1697 8.98503 3.36119C5.68467 5.55268 3.11235 8.66753 1.59336 12.3118C0.0743695 15.9562 -0.323068 19.9663 0.451307 23.835C1.22568 27.7038 3.13709 31.2575 5.94382 34.0468C8.75054 36.836 12.3265 38.7355 16.2196 39.505C20.1126 40.2746 24.1479 39.8796 27.815 38.3701C31.4822 36.8606 34.6166 34.3043 36.8218 31.0245C39.0271 27.7447 40.2041 23.8887 40.2041 19.9441C40.1983 14.6564 38.0821 9.58683 34.3196 5.84782C30.5571 2.10881 25.4558 0.00571912 20.1349 0V0ZM28.4971 21.6061H21.8073V28.2542H18.4625V21.6061H11.7727V18.2821H18.4625V11.6341H21.8073V18.2821H28.4971V21.6061Z" fill="#FFFCF2"/>
</g>
<defs>
<clipPath id="clip0_76_303">
<rect width="40.1384" height="39.8883" fill="white" transform="translate(0.0656738)"/>
</clipPath>
</defs>
</svg>
