<svg width="24" height="24" viewBox="0 0 24 24" fill="none" xmlns="http://www.w3.org/2000/svg">
<g clip-path="url(#clip0_76_291)">
<path d="M9.87799 12.5462C10.4416 13.1076 11.2046 13.4227 12 13.4227C12.7954 13.4227 13.5584 13.1076 14.122 12.5462L23.781 2.88624C23.5586 2.33022 23.1749 1.85347 22.6793 1.51735C22.1837 1.18124 21.5988 1.00114 21 1.00024H2.99999C2.40115 1.00114 1.81629 1.18124 1.32067 1.51735C0.825049 1.85347 0.441363 2.33022 0.218994 2.88624L9.87799 12.5462Z" fill="#AC3CF6"/>
<path d="M15.536 13.9602C14.5974 14.8965 13.3257 15.4223 12 15.4223C10.6743 15.4223 9.40263 14.8965 8.464 13.9602L0 5.50024V23.0002H24V5.50024L15.536 13.9602Z" fill="#AC3CF6"/>
</g>
<defs>
<clipPath id="clip0_76_291">
<rect width="24" height="24" fill="white"/>
</clipPath>
</defs>
</svg>
