<svg width="16" height="16" viewBox="0 0 16 16" fill="none" xmlns="http://www.w3.org/2000/svg">
<g clip-path="url(#clip0_3_2355)">
<path d="M16.0024 8H11.558L13.078 6.50375C12.4202 4.33375 10.4113 2.75 8.00244 2.75C5.36244 2.75 3.18466 4.64 2.758 7.125H0.953553C1.38911 3.66875 4.37577 1 8.00244 1C10.8913 1 13.3447 2.70625 14.4647 5.13875L16.0024 3.625V8ZM3.16689 10.135C4.00244 11.9637 5.83355 13.25 8.00244 13.25C10.3224 13.25 12.278 11.7887 13.0069 9.75H14.8824C14.0913 12.7688 11.318 15 8.00244 15C5.35355 15 3.06022 13.5563 1.84244 11.4388L0.00244141 13.25V8.875H4.44689L3.16689 10.135Z" fill="white"/>
</g>
<defs>
<clipPath id="clip0_3_2355">
<rect width="16" height="16" fill="white"/>
</clipPath>
</defs>
</svg>
